<svg xmlns="http://www.w3.org/2000/svg" xmlns:xlink="http://www.w3.org/1999/xlink" width="800" height="600" stroke="#000" stroke-linecap="round" stroke-linejoin="round" fill="#fff" fill-rule="evenodd"><style><![CDATA[.B{stroke-width:.5}.C{stroke:#3d85c6}.D{stroke:#434343}.E{fill:none}.F{fill:#3d85c6}.G{stroke-width:2}.H{fill-rule:nonzero}.I{stroke:none}.J{fill:#434343}.K{stroke-linejoin:miter}]]></style><defs><path d="M0 0l4 5h-8z" id="A" class="I"/><path id="B" d="M193.7 485.1a45.4 45.4 0 0 1-45.38 45.38 45.4 45.4 0 0 1-45.38-45.38 45.4 45.4 0 0 1 45.38-45.38 45.4 45.4 0 0 1 45.38 45.38"/><path id="C" d="M183.87 485.12c0 19.63-15.92 35.55-35.55 35.55-19.64 0-35.56-15.92-35.56-35.55 0-19.64 15.92-35.56 35.56-35.56 19.63 0 35.55 15.92 35.55 35.56"/><path id="D" d="M176.9 485.12a28.6 28.6 0 0 1-28.57 28.57 28.6 28.6 0 0 1-28.58-28.57 28.6 28.6 0 0 1 28.58-28.58 28.6 28.6 0 0 1 28.57 28.58"/><path id="E" d="M169.9 485.12a21.6 21.6 0 0 1-21.59 21.59 21.6 21.6 0 0 1-21.6-21.59 21.6 21.6 0 0 1 21.6-21.6 21.6 21.6 0 0 1 21.59 21.6"/><path id="F" d="M160.62 485.12a12.3 12.3 0 1 1-24.61 0 12.3 12.3 0 1 1 24.61 0"/><path id="G" d="M157.12 487.73l-4.53-2.08-1.18-3.5 2.64-4.1 23.1-5.57 2.03 6.2-22.05 9.04"/><path id="H" d="M148.02 494.14l-.67-4.94-3-2.15-4.7 1.32-12.08 20.46 5.34 3.75 15.1-18.44"/><path id="I" d="M157.13 487.95l-4.9-.87-2.96 2.2-.17 4.88 15.8 17.73 5.2-3.94-12.98-20"/><path id="J" d="M335.5 408.32h-3.94c-2.75 0-4.98-2.22-4.98-4.97v-.97a5 5 0 0 1 4.98-4.98h3.94c2.75 0 4.97 2.23 4.97 4.98v.97c0 2.75-2.22 4.97-4.97 4.97"/><path id="K" d="M597.07 114.8h5.43v5.43h-5.43z"/><path id="L" d="M751.7 139.87c0 .37-.3.67-.67.67-.18 0-.35-.07-.47-.2-.13-.12-.2-.3-.2-.47 0-.37.3-.67.67-.67.18 0 .35.07.47.2.13.12.2.3.2.47z"/><path id="M" d="M732.72 142.27c0 .18-.07.35-.2.47-.12.13-.3.2-.47.2-.37 0-.67-.3-.67-.67s.3-.67.67-.67c.18 0 .35.07.47.2.13.12.2.3.2.47z"/></defs><ellipse cx="310.59" cy="525.08" fill="#e0e0e0" rx="275.09" ry="5.43" stroke-opacity=".02"/><g stroke-linecap="butt" class="D H K"><path d="M600.63 469.55l1.46-.1s2.6 3.97-1.38 10.25l-5.6.6 5.52-10.77m-374.33-76.6s60.62-50.54 78.98-59.2c-8.4-.78-12.4-.4-12.4-.4s8.53-5.94 21.6-6.6c13.05-.65 74.06-3.5 109.87-2.2l97.85 5.3c5.17.52 15 4.53 24.95 13.96h4.26l40.08 36.07-5.7 5.04-355.73 10.86-3.75-2.85"/><path d="M208.7 385.06l84.15-51.7 11.5-2.46 4.4 2.84-45.1 33.48-34.26 27.54-22.5.25-6.98-5.68 8.8-4.27M95.47 502.17l345.13-5.82 19.23-3.36 82.37-4.14 5.3 2.98 13.83-23.14-9.72-31.5-55.44-17.37-72.63-2.07-223.1 1.55-97.5 16.3-17.98 31.9L82 496.35l13.48 5.82"/><path d="M61.54 493.06s3.43-4.33 3.43-5.7C64.32 486 64 486 64 486l.2-6.07s2.07-1.68 1.3-5.88c-.77-4.2-2.9-21.27-2.78-22.04.13-.78.72-1.68.72-2.52s.45-8.8 1.55-11.06c1.1-2.26 3.3-6.13 3.3-6.13l1.62-1.04s3.36-8.27 9.1-15.64c.2-.97 2.9-6.85 6.72-8.98 3.82-2.14 17.65-8.8 47.77-13.58 30.1-4.78 68.37-8.4 68.37-8.4l6.86.4-3.88 4.14s11.76 3.62 18.35 3.87c6.6.26 226.6-8.66 241.34-9.7 14.73-1.03 117.37-2.33 121.63-2.33 4.27 0 5.3-1.16 5.3-1.16a20.9 20.9 0 0 0 6.85 11.76c1.3 7.37.65 21.2.65 21.2s3.5 4.9 4.14 8.15c.64 3.23-2.33 22.23-1.8 23 .5.78 3.5-.25 2.7 6.6-.77 6.85-3.23 18.22-3.36 19.64-.13 1.43-2.58 11.77-8.92 13.32-6.33 1.55-44.2 8.27-44.2 8.27s3.36-1.42 2.33-10.08-6.2-30.38-26.1-41.24c-19.9-10.86-38.4-9.43-55.97.78s-22.88 28.05-24.95 36.2c-2.07 8.15-2.2 18.87-2.2 18.87l-236.8 5.05s.52-34.78-19-50.55-33.35-17.58-57.13-11.1c-23.8 6.46-29.6 34.38-31.4 43.95-1.8 9.56-.78 18.48-.78 18.48l-12.28-.9s-21.07-.78-21.65-8.2"/><path d="M227.24 500.58l-.45-.27c-2.17-3.85-2.45-8.03-2.74-12.46a65.9 65.9 0 0 0-.6-6.15c-1.18-7.47-1.2-26.23-1.2-28.35l.07-5.5 1.04-.02-.08 5.53c0 2.1.04 20.8 1.2 28.2.34 2.1.48 4.2.6 6.24.28 4.3.55 8.38 2.6 12.03.14.25.05.56-.2.7l-.25.07m-4.83-58.35v-1.3a534.1 534.1 0 0 1 1.77-32.46l.33-.02c.3-.02.5-.27.48-.55-.01-.28-.27-.48-.54-.5l-.17.01c.25-2.63.5-4.74.75-5.96l1.08-.07c-1.18 5-2.66 32.84-2.66 39.54l-.01 1.27-1.03.02m7.26-49.3l.64-.76c.1-.12.24-.18.38-.18.13 0 .25.04.35.13.2.2.23.52.04.73 0 0-.01.01-.03.04l-1.38.04"/><path d="M226.23 398.2c1.1-2.23 2.6-4.22 3.43-5.27l1.38-.04c-.28.33-2.17 2.56-3.6 5.2l-1.22.1m10.4-6.15s71.48-52.6 81.18-54.68c9.7-2.07 50.4-1.68 50.4-1.68L354 384.8l-117.37 7.24m148.4-56.5l-5.56 48.34 99.02-3.36s-17.33-37.35-21.33-43.43c-5.82-.64-72.13-1.55-72.13-1.55m81.95 1.95l22.75 43.04 67.48-1.3-37.36-38.65-52.87-3.1m-108.5 160.3l-.45-.25c-.84-1.44-.8-3.47-.76-5.62l-.08-3.55-.03-.26.2-.17c.6-.56 1-2.16 1.25-4.03l1.06-.04c-.24 1.9-.66 3.73-1.42 4.63a33 33 0 0 1 .06 3.44c-.04 2-.07 3.9.62 5.08.15.24.06.56-.18.7l-.26.07m.43-19.57V478c-.01-.2-.67-21.46-.36-32.52l1.03-.02c-.3 11 .36 32.3.36 32.5a2.2 2.2 0 0 0 .01.23l-1.04.03m-.1-38.85l.65-11.8c.48-8.27.93-16.08.84-19.4-.16-5.45 2-12.94 2.72-15.3l1.1-.04c-.57 1.8-2.95 9.7-2.8 15.3.1 3.35-.36 11.2-.84 19.48l-.65 11.7-1.03.02m6.94-51.63l.32-.47c.1-.15.26-.23.43-.23.1 0 .2.03.3.1.18.13.26.35.2.56l-1.25.05"/><path d="M364.75 389.27l1-1.58 1.25-.05a.6.6 0 0 1-.08.16c-.01.02-.42.62-.93 1.43l-1.24.04M486.6 433.6l-.15-.02c-.27-.08-.43-.36-.35-.64l1.75-6.1c.05-.2 4.98-23.78 4.8-31.73a28.5 28.5 0 0 0-.96-6.61l1.07-.04c.5 2 .88 4.24.93 6.63.17 8.07-4.64 31.03-4.84 32l-1.77 6.14c-.06.22-.27.37-.5.37m2.97-51.03l-.96-1.86c-.14-.24-.07-.56.18-.7.08-.05.17-.07.27-.07.17 0 .34.1.44.25.06.1.57.95 1.2 2.36l-1.14.03"/><path d="M490.8 385.57a34.8 34.8 0 0 0-1.24-3.01l1.14-.02 1.2 3-1.1.04m48.17 38.12h-4.48a9 9 0 0 1-9-9.01v-1.46a9 9 0 0 1 9-9.01h4.48a9 9 0 0 1 9.01 9.01v1.46a9 9 0 0 1-9.01 9.01m-4.48-18.45a8 8 0 0 0-7.97 7.98v1.46a8 8 0 0 0 7.97 7.97h4.48a8 8 0 0 0 7.98-7.97v-1.46a8 8 0 0 0-7.98-7.98h-4.48m-8.23 36.38c-.25 0-.47-.18-.5-.44-.05-.28.15-.54.43-.6l53-8.48c2.77-.63 3.35-3.1 3.35-5.05 0-2.45.83-12.96.86-13.4.02-.26.24-.48.5-.48h.07c.28.03.5.28.47.56 0 .1-.86 10.9-.86 13.32 0 3.3-1.47 5.45-4.15 6.06-2.83.64-51.02 8.17-53.07 8.5l-.08.01m-461.96 10.5s5.43.52 6.85 3.75 5.04 16.93 5.56 18.87-.78 3.88-2.7 3.75c0 0 1.68-2.33-.4-2.97-2.07-.65-2.9-3.32-3.58-6.3-.7-2.98-2.67-13.1-2.33-13.92.35-.82-3.4-3.2-3.4-3.2M94 483.25s-5.34.7-6.98-2.15c-1.63-2.84-5.43-18.96-5-22.32s14.74-3.62 14.74-3.62-13.53 2.4-13.27 4.14c.26 1.72 3.27 19.64 5.08 21.37 1.8 1.72 5.43 2.58 5.43 2.58"/><use xlink:href="#B"/><use xlink:href="#C"/><path d="M179.54 485.12c0 17.25-13.98 31.23-31.23 31.23s-31.23-13.98-31.23-31.23 13.98-31.23 31.23-31.23 31.23 13.98 31.23 31.23"/><use xlink:href="#D"/><use xlink:href="#E"/><use xlink:href="#F"/><path d="M160.44 463.3l.18 6.98 1.37 6.04a40.6 40.6 0 0 1 1.5 6.84c.22 1.6-.04 7.16-.9 9a18 18 0 0 0-1.55 5.39l-.82 6c0 .34-.48 1.9.9 2.97s4.3-.73 5.26-2.46c.95-1.72 4.65-5.73 5.26-7.06.6-1.34 2.02-3.15 1.46-3.97 0 0 1.34-3.23 1.34-6.12 0-2.88-.26-8-1.5-10.77s-2.24-5.17-3.92-7.32c-1.68-2.16-6.85-6.12-6.85-6.12l-1.73.6m-17.4 14.3l3.42 3.62h3.7l3.04-3.82-2.14-23.65-6.53.06-1.48 23.8m-3.4 10.04l4.48-2.18 1.1-3.5-2.72-4.05-23.2-5.1-1.9 6.24 22.23 8.6"/><use xlink:href="#G"/><use xlink:href="#H"/><use xlink:href="#I"/><path d="M143.77 486.64l4.6 3.3 4.53-3.36-1.8-5.38-5.64.04-1.68 5.4"/><use xlink:href="#B" x="348.48"/><use xlink:href="#C" x="348.49"/><path d="M528.04 485.12c0 17.25-14 31.23-31.23 31.23-17.25 0-31.23-13.98-31.23-31.23s13.98-31.23 31.23-31.23c17.24 0 31.23 13.98 31.23 31.23"/><use xlink:href="#D" x="348.48"/><use xlink:href="#E" x="348.5"/><use xlink:href="#F" x="348.48"/><path d="M508.95 463.3l.17 6.98 1.38 6.04a41.6 41.6 0 0 1 1.5 6.84c.22 1.6-.04 7.16-.9 9s-1.17 3.06-1.55 5.4l-.82 6c0 .34-.48 1.9.9 2.97s4.3-.73 5.26-2.46c.95-1.72 4.66-5.73 5.26-7.06.6-1.34 2.02-3.15 1.46-3.97 0 0 1.34-3.23 1.34-6.12 0-2.88-.26-8-1.5-10.77s-2.24-5.17-3.92-7.32c-1.68-2.16-6.85-6.12-6.85-6.12l-1.72.6m-17.43 14.3l3.43 3.62h3.68l3.04-3.82-2.14-23.65-6.53.06-1.48 23.8m-3.4 10.04l4.48-2.18 1.1-3.5-2.7-4.05-23.2-5.1-1.9 6.24 22.23 8.6"/><use xlink:href="#G" x="348.48"/><use xlink:href="#H" x="348.48"/><use xlink:href="#I" x="348.49"/><path d="M492.26 486.64l4.6 3.3 4.5-3.36-1.8-5.38-5.64.04-1.68 5.4M262.57 383.9s47.9-36.03 56.87-39.13c0 0 1.9-.86 7.07-1.03s28.78 0 28.78 0 4.05.26 3.28 3.7c-.78 3.45-10.95 38.44-10.95 38.44l9.6-.7 14.35-50.8-52.87.52-27.8 16.67-47.7 33.1s-10.73 8.66-10.08 8.66 68.38-4.65 68.38-4.65-9.3-18.83-11.2-20.64c-1.9-1.8-3.62.77-2.76 2.07s5.08 11.37 5.08 11.37-2.58.1-2.93.26l-2.4 1.3s-1.3-1.37-2.07-1.2-20.6 4.3-20.6 4.3l-2.07-2.24"/><path d="M380.97 355.46s5.86 12.75 6.03 17.06-1.72 3.1-1.72 3.1l2.24 4.82 56.7-1.9s3.45-16.2 3.1-18.6c-.34-2.42-8.44-17.58-8.44-17.58l-55.5-.52-2.4 13.62"/><use xlink:href="#J"/><use xlink:href="#J" x="127.38" y="-5.17"/><path d="M124.85 414.53h-.03c-.27 0-.5-.2-.52-.5s.2-.53.5-.54l99.48-6.07-.1 1.04-99.33 6.06"/><path d="M224.17 408.47l.1-1.04.17-.01c.27.01.53.2.55.5.01.28-.2.53-.5.54l-.33.02m-99.73 32.94l-.4-.18-.2-.23 1.03-.4c.13.2.1.5-.1.67l-.34.13"/><path d="M123.84 441l-3.55-4.04-10.76-14.64c-.17-.23-.12-.55.1-.72a.5.5 0 0 1 .31-.1c.15 0 .3.07.4.2l10.73 14.6 3.72 4.23c.02.02.04.04.05.06l-1.02.4m58.52-30.1l14.86 13.06s2.4 2.65 7.37 2.7h8.92s1.94-.45.78-1.68c-1.17-1.23-15.7-15.38-15.7-15.38l-16.22 1.3m283.77-59.4l-2.6 30.5h1.38l2.4-28.27-1.2-2.24m-207.32 37.14l20.5-.6c1.9-.18 4.13-1.64 4.48-2.85.34-1.2.34-12.84-1.47-15.42-1.8-2.6-5.34-3.28-8.6-3.02-3.28.26-15.5 1.98-16.63 8.62-1.13 6.63 1.63 7.58 1.63 7.58h-4.22s.7 3.45 4.3 5.7"/><path d="M255.37 375.23l1.3 17.97-24.3 1.3-.13-3.75 23.14-15.5m64.22 27.78s.52 1.9 1.55 2.23c1.04.35 18.1-.6 18.1-.6l1.64 1.47s9.9-1.73 10.42-2.16.78-3.27-.52-3.7-26.64.84-28.43 1.3c-1.73.43-2.33.43-2.76 1.47m127.38-5.18s.52 1.9 1.55 2.23c1.04.35 18.1-.6 18.1-.6l1.64 1.47s9.9-1.73 10.42-2.16.78-3.27-.5-3.7c-1.3-.43-26.65.84-28.44 1.3-1.73.43-2.33.43-2.76 1.47m-171.6 88.66h-1.27c-19.9-.13-38.78-4.65-38.78-4.65l123.58-3.64a43.9 43.9 0 0 1-.31 5.69l-83.22 2.6m84.28-2.64c.3-2.37.3-4.82.28-5.68l60.67-1.25c-9.3 4.14-20.7 4.5-33.44 5.52-3.95.32-14.4.84-27.5 1.4"/><path d="M358.6 483.93a44 44 0 0 0 .31-5.69l1.03-.03a45.9 45.9 0 0 1-.28 5.67l-1.06.05m-261.23-70.3c5.26-7.5 36.8-8.45 40.93-8.45 3.23 0 58.2-4.62 87.93-6.97a15.5 15.5 0 0 0-1.04 2.6 8.1 8.1 0 0 0-.16.66l-115.94 7.68c-5.26.77-11.72 4.48-11.72 4.48M226.1 401.4c.02-.1.05-.2.07-.3.3-1 .75-2.03 1.27-3l130.95-8.6 6.35-.23c-.6 1-1.25 2.14-1.5 2.9a10.6 10.6 0 0 0-.24.74l-4.7.2-132.2 8.28m138-8.53l.12-.37c.27-.82 1.1-2.2 1.76-3.27l120.3-3.44a130.6 130.6 0 0 1 4.5-.22 36.3 36.3 0 0 1 .91 2.92l-127.6 4.38m217.3-.36s-2.16-2.5-3.28-3.27c-1.12-.78-3.2-2.07-7.93-2.33a82.2 82.2 0 0 0-2.95-.04 3300.9 3300.9 0 0 0-65.38 1.25l-9.1.34a36.7 36.7 0 0 0-.88-2.92 868.6 868.6 0 0 1 21.85-.21l28.3.12c6.47 0 25.94.26 33.35 1.2 7.4.95 8.8 5.6 8.8 5.6l-2.75.25"/><path d="M225.03 401.47l.16-.66c.25-.88.62-1.76 1.04-2.6l1.22-.1a15.8 15.8 0 0 0-1.27 2.99l-.08.3-1.07.07M363 392.9l.23-.74a17 17 0 0 1 1.51-2.9l1.24-.04c-.67 1.05-1.5 2.44-1.76 3.27-.01.01-.05.14-.12.37l-1.1.04m128.7-4.4l-.9-2.92 1.1-.03.87 2.92-1.06.03m-294.63 59.77l-3.88-5.43 29.2-.6-.1 5.6-25.24.43m26.27-.45c0-.06 0-.12.01-.18l.1-5.43 135.35-2.8-.24 6.1-135.2 2.32m136.24-2.34v-.38l.24-5.72 82.06-1.7-3.88 6.46-78.43 1.35"/><path d="M222.3 447.84v-.23l.1-5.38 1.03-.02-.1 5.43c0 .06 0 .12-.01.18l-1.03.02m136.25-2.34l.01-.43.24-5.67 1.03-.02-.25 6.1-1.03.02m191.67-51.87s4.57 6.46 8.2 7.76c3.62 1.3 10.5 0 14.73 2.24s10.78 10.08 10.78 10.08l15.03-.86s1.17-12.15-.64-21.2c-4.3.43-48.1 1.98-48.1 1.98"/><path d="M593.95 408.84l-5.38.1c-.95.02-1.74-.74-1.76-1.7l-.2-10.94c-.02-.95.74-1.74 1.7-1.75l5.38-.1c.95-.02 1.74.74 1.76 1.7l.2 10.94c.02.95-.73 1.74-1.7 1.76"/><path d="M593.9 407.37h0c.6-.01 1.07-.5 1.05-1.1l-.17-9.1c-.02-.6-.5-1.07-1.1-1.06s-1.07.5-1.06 1.1l.18 9.1c.01.6.5 1.07 1.1 1.06M69.7 431.23s1.55 1.05 3.96 1.14c2.42.1 12.5.1 15.43-.6s10.5-8.53 14.56-9.05 12.24-2.07 14.14-2.76c1.9-.7 8-6.3 8-6.3L87.98 416c-5.52.17-9.16-.4-9.16-.4s-8.94 12.6-9.1 15.64"/><path d="M86.62 429.08H81.4a2.5 2.5 0 0 1-2.5-2.5v-6.8a2.5 2.5 0 0 1 2.5-2.5h5.23a2.5 2.5 0 0 1 2.5 2.5v6.8a2.5 2.5 0 0 1-2.5 2.5"/><path d="M84.98 427.26h0a2.5 2.5 0 0 1-2.5-2.5v-2.63a2.5 2.5 0 1 1 5 0v2.63a2.5 2.5 0 0 1-2.5 2.5m5.84-9.76l30.12-2.13s-2.97 3.23-5.7 3.43c-2.7.2-14.28 1.87-15.7 2.64-1.42.78-5.94 6.02-8.6 6.73l-.13-10.67m98.44-3.94l1.42 1.62 31.35-1.55.06-2.07-32.83 2m3.23 3.54l1.16 1.04 28.44-1.04.13-2.13-29.73 2.13"/></g><path d="M767.98 242.85V85.5H523.3v102.3l-21.17 37.55h21.17v17.5h244.7" stroke="#f90" class="G"/><g transform="translate(232.13 307.96)" class="C"><path d="M0 5.63v26.73" class="E G"/><g stroke-width="1.6" class="F"><use transform="matrix(1.25 0 0 1.25 0 0)" xlink:href="#A"/><use transform="matrix(-1.25 0 0 -1.25 0 75.95)" xlink:href="#A" y="30.38"/></g></g><g class="D"><path d="M234.63 232c-5.6-14.7-11.18-29.4 10.85-27.13 22.02 2.26 71.66 21.48 75.96 32.56 4.3 11.07-36.75 14-48.83 21.7s4.8 20.12 21.7 32.55" class="E G"/><g class="K"><path d="M308.32 173.63h170.55a4 4 0 0 1 3.99 3.99v105.92a4 4 0 0 1-3.99 3.99H308.32a4 4 0 0 1-3.99-3.99V177.62a4 4 0 0 1 3.99-3.99h0z"/><path d="M441.27 174.43H308.32a3.2 3.2 0 0 0-3.19 3.19v105.92c0 1.78 1.47 3.2 3.2 3.2h47.93l85.02-112.3z" opacity=".3" class="H"/><path d="M311.77 181.2h163.66c.44 0 .8.37.8.8v97.13c0 .43-.36.8-.8.8H311.77c-.43 0-.8-.37-.8-.8V182c0-.43.37-.8.8-.8h0z"/><path d="M311.77 182h163.67v97.13H311.77V182zM290.5 287.4h206.2v5.22H290.5v-5.22z"/><path d="M380.76 287.4h26.85c0 1.47-1.17 2.64-2.64 2.64h-21.63a2.7 2.7 0 0 1-2.58-2.64h0zm-84.72 10.45h195.12c3.07 0 5.53-2.33 5.53-5.22h0-206.2c0 2.9 2.52 5.22 5.53 5.22h0z"/><path d="M325.84 180.88l133.93.6H325.84v-.6zm-8 98.8l140.38.6H317.85v-.6zm-19.97 7.43h82.88v.6h-82.88v-.6zm109.72 0h80.73v.6H407.6v-.6z" class="H"/></g><path stroke-opacity=".88" d="M227.57 221.14h8.14V232h-8.14z" class="J"/></g><path d="M212.38 231.78h37.98v39.13l-2.23 5.83v10.23H215v-10.23l-2.63-5.83v-39.13m4.86 55.35h29.58v4.55h-29.58z" class="C G"/><g class="C"><circle cx="232.69" cy="246.93" r="3.54"/><circle cx="239.65" cy="255.78" r="5.31"/><circle cx="225.85" cy="263.91" r="8.02"/></g><path d="M556.38 101.78h124.8v70.54h-124.8z" class="D"/><path d="M564.5 118.05h21.7m-21.7 8.15h21.7m-21.7 8.13h21.7m-21.7 8.14h21.7m-21.7 8.13h21.7m-21.7 8.15h21.7" class="C E"/><g class="B D"><use xlink:href="#K"/><use xlink:href="#K" x="9.77"/><use xlink:href="#K" x="19.53"/><use xlink:href="#K" x="29.3"/><use xlink:href="#K" x="39.07"/><use xlink:href="#K" x="48.83"/><use xlink:href="#K" x="58.6"/></g><use xlink:href="#K" x="68.36" class="B C F"/><use xlink:href="#K" y="8.03" class="B D"/><use xlink:href="#K" x="9.77" y="8.03" class="B C F"/><g class="D B"><use xlink:href="#K" x="19.53" y="8.03"/><use xlink:href="#K" x="29.3" y="8.03"/><use xlink:href="#K" x="39.07" y="8.03"/></g><use xlink:href="#K" x="48.83" y="8.03" class="B C F"/><g class="D B"><use xlink:href="#K" x="58.6" y="8.03"/><use xlink:href="#K" x="68.36" y="8.03"/><use xlink:href="#K" y="16.06"/><use xlink:href="#K" x="9.77" y="16.06"/><use xlink:href="#K" x="19.53" y="16.06"/><use xlink:href="#K" x="29.3" y="16.06"/><use xlink:href="#K" x="39.07" y="16.06"/><use xlink:href="#K" x="48.83" y="16.06"/><use xlink:href="#K" x="58.6" y="16.06"/><use xlink:href="#K" x="68.36" y="16.06"/><use xlink:href="#K" y="24.1"/><use xlink:href="#K" x="9.77" y="24.1"/><use xlink:href="#K" x="19.53" y="24.1"/></g><use xlink:href="#K" x="29.3" y="24.1" class="B C F"/><g class="D B"><use xlink:href="#K" x="39.07" y="24.1"/><use xlink:href="#K" x="48.83" y="24.1"/><use xlink:href="#K" x="58.6" y="24.1"/><use xlink:href="#K" x="68.36" y="24.1"/><use xlink:href="#K" y="32.12"/></g><use xlink:href="#K" x="9.77" y="32.12" class="B C F"/><g class="D B"><use xlink:href="#K" x="19.53" y="32.12"/><use xlink:href="#K" x="29.3" y="32.12"/><use xlink:href="#K" x="39.07" y="32.12"/><use xlink:href="#K" x="48.83" y="32.12"/><use xlink:href="#K" x="58.6" y="32.12"/><use xlink:href="#K" x="68.36" y="32.12"/></g><use xlink:href="#K" y="40.15" class="B C F"/><use xlink:href="#K" x="9.77" y="40.15" class="B D"/><use xlink:href="#K" x="19.53" y="40.15" class="B C F"/><g class="D B"><use xlink:href="#K" x="29.3" y="40.15"/><use xlink:href="#K" x="39.07" y="40.15"/><use xlink:href="#K" x="48.83" y="40.15"/><use xlink:href="#K" x="58.6" y="40.15"/><use xlink:href="#K" x="68.36" y="40.15"/></g><g transform="translate(694.73 101.78)" class="D"><path d="M.65 70L.04 4.5" class="E"/><use transform="matrix(1 -.0093 .0093 1 0 0)" xlink:href="#A" class="J"/></g><g transform="translate(695.38 171.77)" class="D"><path d="M0 0h49.65" class="E"/><use transform="matrix(0 1 -1 0 54.15 -54.15)" x="54.15" xlink:href="#A" class="J"/></g><g fill="#f90" class="H I"><path d="M744.93 138.35c0 .37-.3.67-.67.67s-.67-.3-.67-.67.3-.67.67-.67.67.3.67.67z"/><use xlink:href="#L"/><use xlink:href="#L" x="-43.4" y="2.88"/><path d="M726.6 141.1c0 .37-.3.67-.67.67s-.67-.3-.67-.67c0-.18.07-.35.2-.47.12-.13.3-.2.47-.2s.35.07.47.2c.13.12.2.3.2.47z"/><use xlink:href="#M"/><use xlink:href="#L" x="-12.88" y="6.33"/><use xlink:href="#M" x="-36.65" y="7.68"/><use xlink:href="#L" x="-49.4" y="8.86"/><path d="M714.4 135.6c0 .18-.07.35-.2.47-.12.13-.3.2-.47.2s-.35-.07-.47-.2c-.13-.12-.2-.3-.2-.47s.07-.35.2-.47c.12-.13.3-.2.47-.2s.35.07.47.2c.13.12.2.3.2.47z"/><use xlink:href="#L" x="-31.2" y="5.63"/></g><path d="M695.63 150.18l6.27-1.57m0-.01l5.88-5.88 5.88-7.06 6.28 9.8 5.88-4.3 6.27 1.18 6.28 3.92 5.88-7.85 7.06 1.57" stroke="#f90" class="E"/><path d="M556.38 183.16h21.7m-21.7 6.98h21.7m-21.7 6.96h21.7m-21.7 7h21.7m-21.7 6.96h21.7m-21.7 6.98h21.7m-21.7 6.98h21.7m-21.7 6.98h21.7m6.52-48.84H628m-43.4 6.98H628m-43.4 6.96H628m-43.4 7H628m-43.4 6.96H628m-43.4 6.98H628m-43.4 6.98H628M584.6 232H628m6.5-48.84h13.02m-13.02 6.98h13.02m-13.02 6.96h13.02m-13.02 7h13.02m-13.02 6.96h13.02m-13.02 6.98h13.02m-13.02 6.98h13.02M634.5 232h13.02m6.52-48.84h93.32m-93.32 6.98h93.32m-93.32 6.96h93.32m-93.32 7h93.32m-93.32 6.96h93.32m-93.32 6.98h93.32m-93.32 6.98h93.32M654.04 232h93.32" class="C E"/><path d="M174.58 362.22H57.2v-124.8h117.38v65.86l12.84 36.87-12.84 1.26v20.8" stroke="#f90" class="G"/><path d="M163.73 262.5h-9.23v-9.23h-21.53v9.23h-9.23c-1.7 0-3.08 1.38-3.08 3.08v6.15c0 1.7 1.38 3.08 3.08 3.08v21.53c0 1.7 1.38 3.08 3.08 3.08h3.07c1.7 0 3.08-1.38 3.08-3.08v-9.23h3.07v1.54a4.6 4.6 0 0 0 3.08 4.33v9.5h3.08v20a23 23 0 0 1-8.6 17.94 16.8 16.8 0 0 0 2.44-8.71c0-9.33-7.6-16.92-16.92-16.92s-16.92 7.6-16.92 16.92a16.8 16.8 0 0 0 2.45 8.71 23 23 0 0 1-8.6-17.94v-20h3.08V293a4.6 4.6 0 0 0 3.07-4.33v-1.54h3.08v9.23c0 1.7 1.38 3.08 3.08 3.08h3.07c1.7 0 3.08-1.38 3.08-3.08v-21.53c1.7 0 3.08-1.38 3.08-3.08v-6.15c0-1.7-1.38-3.08-3.08-3.08h-9.23v-9.23H83.75v9.23h-9.23c-1.7 0-3.08 1.38-3.08 3.08v6.15c0 1.7 1.38 3.08 3.08 3.08v21.53c0 1.7 1.38 3.08 3.07 3.08h3.08c1.7 0 3.08-1.38 3.08-3.08v-9.23h3.07v1.54A4.6 4.6 0 0 0 89.9 293v9.5h3.08v20c0 13.84 10.8 25.16 24.42 26.06a16.2 16.2 0 0 0 1.72.1 16.4 16.4 0 0 0 1.73-.09c13.62-.9 24.42-12.22 24.42-26.06v-20h3.08V293a4.6 4.6 0 0 0 3.08-4.33v-1.54h3.07v9.23c0 1.7 1.38 3.08 3.08 3.08h3.08c1.7 0 3.07-1.38 3.07-3.08v-21.53c1.7 0 3.08-1.38 3.08-3.08v-6.15c0-1.7-1.38-3.08-3.08-3.08zm-70.75 36.92v-6.16h3.07v6.16h-3.07zm15.38-3.08v-12.3h3.07v12.3h-3.07zm3.07-15.38h-3.07v-6.15h3.07v6.15zm-24.6-24.6h15.38v6.15h-15.4v-6.15zm-12.3 9.23h40v6.15h-40l-.01-6.15zm6.16 9.23v6.15h-3.1v-6.15h3.08zm-3.08 21.53v-12.3h3.08v12.3h-3.1zm6.16-12.3v-9.22h21.53v9.22h-6.15v4.62c0 .85-.7 1.54-1.54 1.54h-6.15c-.85 0-1.54-.7-1.54-1.54v-4.62h-6.15zm21.53 47.7c0-7.63 6.2-13.85 13.84-13.85S133 324.12 133 331.75s-6.2 13.84-13.85 13.84c-7.63 0-13.84-6.2-13.84-13.84zm30.76-75.37h15.4v6.15h-15.4v-6.15zm-6.15 18.46V281h-3.07v-6.15h3.07zm-3.07 21.53v-12.3h3.07v12.3h-3.07zm15.38 3.08v-6.16h3.07v6.16h-3.07zm6.15-15.4v4.62c0 .85-.7 1.54-1.54 1.54h-6.15c-.85 0-1.54-.7-1.54-1.54v-4.62H133v-9.22h21.53v9.22h-6.15zm9.23 12.3v-12.3h3.08v12.3h-3.08zm3.08-15.38h-3.08v-6.15h3.08v6.15zm3.07-9.23h-40v-6.15h40v6.15zm-27.7 6.16h15.38v3.08h-15.38z" class="F H I"/><path d="M71.44 249.42h46.52v62.02H71.44z" class="I"/><g class="C"><path d="M88.94 311.76h11.94v5.43H88.94z" class="G"/><circle cx="122.32" cy="337.8" stroke-width="3" r="16.28" class="E"/><path d="M72.12 288.97h45.58v10.85H72.12z" class="G"/><path d="M77.82 299.28v-9.77m33.64 9.77v-9.77" class="E"/><g class="G"><path d="M79.72 307.42h30.38v5.43H79.72z"/><path d="M70.23 299.82h49.37v8.14H70.23z"/></g></g><g transform="translate(545.52 183.16)" class="C"><path d="M0 0v43.2" class="E G"/><use stroke-width="1.6" y="39.07" xlink:href="#A" transform="matrix(-1.25 0 0 -1.25 0 97.675)" class="F"/></g></svg>